<!--?xml version="1.0" standalone="no"?-->
              <svg id="sw-js-blob-svg" viewBox="0 0 100 100" xmlns="http://www.w3.org/2000/svg" version="1.1">
                    <defs> 
                        <linearGradient id="sw-gradient" x1="0" x2="1" y1="1" y2="0">
                            <stop id="stop1" stop-color="rgba(0, 236.269, 248.917, 0.52)" offset="0%"></stop>
                            <stop id="stop2" stop-color="rgba(0, 144.851, 251.229, 1)" offset="100%"></stop>
                        </linearGradient>
                    </defs>
                <path fill="url(#sw-gradient)" d="M23.2,-39.8C30,-36.3,35.5,-29.9,38.2,-22.8C40.9,-15.7,40.9,-7.9,40.8,-0.1C40.6,7.7,40.4,15.5,37.1,21.5C33.8,27.6,27.4,32,20.7,34.4C14,36.8,7,37.2,0.1,37.1C-6.8,36.9,-13.6,36.2,-20.5,33.9C-27.4,31.6,-34.5,27.8,-38.8,21.9C-43.1,16,-44.7,8,-44.9,-0.1C-45,-8.2,-43.8,-16.4,-39.3,-22C-34.9,-27.6,-27.2,-30.6,-20.1,-34C-13,-37.4,-6.5,-41.2,0.9,-42.7C8.2,-44.2,16.4,-43.4,23.2,-39.8Z" width="100%" height="100%" transform="translate(50 50)" stroke-width="0" style="transition: all 0.3s ease 0s;" stroke="url(#sw-gradient)"></path>
              </svg>